/* XPM */
static char *_d54becdfdcf466dd957727fc2ee3380YJEmCw7d9Gg1jBYb[] = {
/* columns rows colors chars-per-pixel */
"50 50 183 2 ",
"   c #020201",
".  c #0A0503",
"X  c #040A03",
"o  c #0D0906",
"O  c #0A0B0A",
"+  c #070C08",
"@  c #130B06",
"#  c #140D09",
"$  c #180F0A",
"%  c #061306",
"&  c #081507",
"*  c #071806",
"=  c #071208",
"-  c #0A130A",
";  c #0C1B0B",
":  c #17100A",
">  c #1C110A",
",  c #110F11",
"<  c #131313",
"1  c #101C10",
"2  c #191917",
"3  c #1B1B1B",
"4  c #23140B",
"5  c #291709",
"6  c #26180F",
"7  c #2C1A0E",
"8  c #3A1F0C",
"9  c #261710",
"0  c #271812",
"q  c #2B1B11",
"w  c #221F1E",
"e  c #311E11",
"r  c #0E250E",
"t  c #0D2C0D",
"y  c #0E310E",
"u  c #10360F",
"i  c #0F2711",
"p  c #132512",
"a  c #162E15",
"s  c #123511",
"d  c #143B14",
"f  c #183E17",
"g  c #193618",
"h  c #1A3B1A",
"j  c #39200C",
"k  c #22211F",
"l  c #362315",
"z  c #3A2415",
"x  c #362318",
"c  c #3D2719",
"v  c #211F20",
"b  c #232322",
"n  c #2B2726",
"m  c #2A2926",
"M  c #2C2A2A",
"N  c #322E2D",
"B  c #343434",
"V  c #3D3836",
"C  c #373938",
"Z  c #3C3B3B",
"A  c #3B3734",
"S  c #452A17",
"D  c #472B1A",
"F  c #4D311D",
"G  c #553019",
"H  c #6E3D15",
"J  c #65371E",
"K  c #65391C",
"L  c #6A3D1E",
"P  c #493A34",
"I  c #573F33",
"U  c #573823",
"Y  c #653C24",
"T  c #663F28",
"R  c #174B17",
"E  c #184A17",
"W  c #1B441B",
"Q  c #1A4B1A",
"!  c #134313",
"~  c #1B541B",
"^  c #1C5D1C",
"/  c #175117",
"(  c #1D651D",
")  c #1D6A1C",
"_  c #1F771F",
"`  c #206D1F",
"'  c #21621E",
"]  c #207E1E",
"[  c #255B25",
"{  c #225721",
"}  c #236223",
"|  c #236D23",
" . c #2B6C2C",
".. c #237522",
"X. c #247A23",
"o. c #287629",
"O. c #2B7C2A",
"+. c #267B28",
"@. c #317731",
"#. c #714017",
"$. c #744218",
"%. c #664126",
"&. c #6C4223",
"*. c #6F4628",
"=. c #724323",
"-. c #704729",
";. c #754929",
":. c #7B4E2C",
">. c #7E502E",
",. c #664937",
"<. c #674738",
"1. c #68483B",
"2. c #664837",
"3. c #3F4140",
"4. c #434343",
"5. c #4B4C4B",
"6. c #515151",
"7. c #5E5654",
"8. c #694E42",
"9. c #644C42",
"0. c #6A5043",
"q. c #645C5A",
"w. c #6C5E5A",
"e. c #635957",
"r. c #6A615D",
"t. c #6C6260",
"y. c #6F6969",
"u. c #716966",
"i. c #746C6A",
"p. c #76716E",
"a. c #79706E",
"s. c #797270",
"d. c #8B4D1A",
"f. c #824A19",
"g. c #8F501D",
"h. c #82532F",
"j. c #88572F",
"k. c #8F582F",
"l. c #915727",
"z. c #975825",
"x. c #985A26",
"c. c #995B28",
"v. c #915B2F",
"b. c #845430",
"n. c #8D5A32",
"m. c #885631",
"M. c #925C33",
"N. c #966034",
"B. c #9C6235",
"V. c #9E6439",
"C. c #A26639",
"Z. c #A2693B",
"A. c #AE6F3C",
"S. c #B06E3C",
"D. c #AE703E",
"F. c #A96D40",
"G. c #AF7140",
"H. c #238223",
"J. c #2B8C2B",
"K. c #269725",
"L. c #269826",
"P. c #299F27",
"I. c #2C942C",
"U. c #2A9E2A",
"Y. c #2F8731",
"T. c #318B32",
"R. c #2F9C31",
"E. c #329433",
"W. c #329D32",
"Q. c #2DA42C",
"!. c #2FAA2E",
"~. c #31AC2F",
"^. c #2FA431",
"/. c #32A432",
"(. c #33AE33",
"). c #33B133",
"_. c #8D8D8D",
"`. c #90908E",
"'. c #8F9190",
"]. c #949494",
"[. c #979998",
"{. c #999999",
"}. c #989898",
/* pixels */
"(.).).(.).W.W u g g h h g t i i r f ^.).).).).).).(.).).).).(.).W.i ; ; - ; - & - = X % X U.).).(.).",
").).~.Q.).J.                  .   = I.(.).(.~.Q.).).(.~.^.).).(.E.    $ : : > > > $ : .   W.).(.Q.).",
"P.(.(.(.(._   S Z.A.Z.A.Z.A.A.Z.9 = R.(.U.(.(.(.(.U.).(.).).U.~.E.  q G.A.D.D.S.D.S.D.F   J.(.(.).(.",
"Q.).).).(.|   D D.A.A.A.S.S.A.A.q X I.).Q.).(.).).^.).(.(.).Q.).U.  q A.A.S.A.A.A.A.D.F   T.).(.(.).",
") ( ^ ) ` !   q %.%.&.&.*.*.-.-.> X ( X.X...) ] X.+.+.) X.O.O.O.'   > >.:.h.b.h.h.:.:.c   @.T.O.T.J.",
"                              .       .   X X X X X X   X + O O +     . . o o o @ o O X   O O - = - ",
"6.6.6.6.5.5.5.5.5.5.5.5.4.4.4.4.4.4.4.Z 3.Z Z Z C C C C Z B C B B B N B N M M M M M M M m b b b b b ",
"}.}.{.{.}.}.}.}.}.}.}.{.}.{.}.}.}.}.}.}.}.}.{.{.{.}.{.{.{.{.{.{.{.}.{.{.{.{.[.[.}.}.}.}.}.}.{.{.}.}.",
"].`.`.].].].].`.].`.].].].].].].].].].].].].].].].].].].].].].].].[.].].[.].[.[.}.].}.}.[.].].}.}.].",
"u.u.u.u.u.u.u.u.u.u.u.y.u.u.u.u.u.u.u.u.i.u.u.u.u.i.i.u.i.i.i.i.u.u.i.i.i.i.i.i.i.i.i.i.i.p.i.i.i.p.",
"w w w k w k k I <.<.<.<.2.2.<.1.P m m m M n n M N M M M M N N N B B P 1.0.1.0.0.9.0.0.9.V A A A V V ",
"              S J K K K K K K L z                                   > K K K K K J Y K G             ",
"H.I.T.J.J.!   *.B.B.B.B.B.B.B.M.Y   E O...O.O.+.O.| O.o.o.o.| o.[   l k.M.M.v.k.k.M.k.;.. t ^ ^ ^ [ ",
"Q.).).(.)./   :.A.A.A.A.A.S.A.D.;.  ( ).Q.).).).).Q.).(.(.).Q.).T.  l D.A.A.A.A.A.A.A.M.. ~ (.(.).).",
").~.L.(.).E   :.A.S.A.A.A.A.A.A.:.  ( (.).(.L.(.).).(.L.(.).(.(.+.  z A.A.A.A.G.A.A.A.M.  ^ (.L.(.).",
"(.).).).).Q   :.S.D.A.A.A.A.S.A.b.  } ).).).).(.).(.).).).).(.).T.  z A.A.A.A.A.A.A.A.M.. ^ ).).(.).",
").(.~.^.(.W   b.A.A.S.A.A.A.A.A.b.  ~ ).).).(.Q.(.).(.(.Q.(.).(.J.  l A.A.A.A.A.A.A.A.n.  ' (.(.Q.~.",
"U.(.).(.(.f   :.D.A.A.A.A.S.A.A.m.  ~ (.U.(.(.(.(.U.(.(.(.(.P.(.T.  x A.A.A.A.A.A.A.D.n.  Q (.(.).(.",
"Q.).(.(.).h   j.A.A.A.A.S.A.A.A.j.  / ).Q.(.(.(.).Q.(.).(.).Q.).J.  z A.A.A.A.A.A.A.A.M.. ! ).(.(.).",
"(.~.L.(.(.f . k.A.A.S.A.A.A.A.A.j.  Q (.(.(.L.~.(.).!.L.(.(.(.~.X.  l S.A.A.A.A.A.A.D.M.  E (.L.(.(.",
").).).).).f . M.A.A.A.A.A.A.A.A.n.  W ).(.).).(.).(.).).(.).(.).K.  l S.A.A.A.A.A.A.D.M.. R ).).(.).",
").(.(.Q./.f @ M.A.A.A.A.A.A.A.A.M.  d (.).).(.Q.).).).(.Q.).).).J.  l S.S.A.D.A.A.A.D.M.. W (.(.Q.).",
"U.(.(.(./.u & N.A.A.A.A.A.A.A.A.B.  d (.U.(.(.(.(.P.(.(.).(.P.(.J.  z A.D.A.A.A.A.A.A.V.@ h ).(.(.(.",
"Q.(.).(.~.u @ B.A.A.A.A.A.A.A.A.V.  a ).Q.).).).).^.).(.(.).Q.(.I.  l A.A.A.A.D.A.A.A.V.# f ).(.).).",
").~.L.).(.s : N.A.A.D.A.A.A.A.D.G.  i (.(.~.K.(.(.(.(.L.(.(.(.(.]   l A.A.D.A.A.D.D.A.V.# d ~.L.(.(.",
").).).).^.s : B.A.A.A.A.D.S.A.A.G.  r ).(.).).).).(.).).(.).(.).E.  z A.A.A.A.A.A.S.A.C.: u ).).(.).",
").(.~.Q.^.s > V.A.A.A.D.A.D.A.A.A.o ; (.).).~.Q.).).(.(.Q.(.).(.E.  z A.A.A.A.A.A.A.A.Z.: a (.~.Q.(.",
"U.).(.(.^.t 6 V.D.A.A.S.A.A.A.A.A.o * (.U.(.(.(.(.P.(.(.).(.U.(.E.  z A.A.A.D.A.A.A.A.C.: r (.).).(.",
"Q.).(.(.!.y 9 B.A.A.A.A.A.A.A.A.A.@ ; !.Q.).(.(.(.^.).).(.).Q.).U.  z A.D.S.A.A.A.A.A.C.$ ; ).(.(.).",
"(.~.L.(./.s 9 V.D.A.A.A.D.A.A.A.A.@ ; /.(.(.L.(.(.(.(.L.(.(.(.!.H.  z A.D.S.A.D.A.A.A.Z.$ 1 ~.L.).(.",
").).).).^.s 0 V.A.A.D.A.A.A.A.A.A.# & /.(.).).).).(.).).).).).).R.  z A.A.A.A.A.A.D.S.C.$ - ).).).).",
").(.(.Q.Q.y 9 C.A.A.A.A.A.A.A.A.D.$ & /.).(.~.Q.(.).).~.Q.).).(.U.  z A.D.S.A.A.A.S.A.C.# X (.!.^.).",
"U.(.(.(.^.t 0 V.G.G.A.A.A.D.A.A.G.$ - ^.U.).(.(.(.U.(.).(.).U.(.R.  x S.A.A.A.A.A.S.A.C.#   ).).).(.",
"Q.).(.)./.i q C.A.A.A.D.A.A.A.A.G.@ % Q.Q.).(.(.).Q.).(.(.(.^.(./.  l A.A.S.A.A.A.A.A.C.# X ).).).).",
"(.(.K.(./.p 0 Z.A.D.D.D.D.S.A.A.G.@ % /.(.(.L.(.(.(.(.L.(.(.(.^.J.  e S.S.S.S.F.A.A.A.Z.: + ~.K.~.).",
"W.W./.W.E.p 0 M.V.V.V.Z.Z.Z.Z.Z.F.@ & /.(.(.(.(.).(.).).).).).).(.  e G.G.F.G.G.A.D.A.Z.: - ).).(.).",
"                  .         .           +       . +   O O   O O +     O . o @ @ @ O @ @     & ; - ; ",
"b b b b v v v v v p w w w 3 w 3 3 3 3 3 3 v 3 2 2 2 2 < 2 2 2 < < 2 < < < < < < < < < < < < < , , , ",
"}.{.{.{.{.{.}.}.{.}.}.}.}.}.].].}.].].].].].].].].].].].].].'.'.'.`.'.].]._._._.`._.`._._._._._._._.",
"{.{.{.{.{.{.}.{.{.{.{.{.}.{.{.}.{.{.{.}.}.}.}.}.{.{.}.{.{.{.{.{.{.{.{.{.{.{.{.{.{.}.}.}.}.}.}.].}.}.",
"u.y.u.u.u.u.u.u.y.y.i.u.i.i.u.i.u.i.i.u.i.i.i.i.i.i.i.i.a.i.a.a.i.p.a.a.i.a.a.a.a.a.s.s.a.s.s.s.s.s.",
"7.7.7.7.e.7.e.w.w.w.w.w.w.w.w.w.w.e.q.q.e.q.q.q.q.q.q.q.q.q.q.q.q.q.w.r.r.u.r.t.t.t.t.w.q.w.r.r.r.t.",
"  . X .   + 9 Y Y Y Y Y Y Y Y Y Y $ + O O O O O # O O O O O O O O , x Y &.T Y Y T T Y U < , , , < O ",
"r i i r ;   9 $.=.=.=.=.=.=.L L &..   1 1 ; 1 1 1 1 1 ; - - & & +   7 L L L K H L L L G     X     . ",
").(.L.(.I.& e C.A.A.A.A.S.S.S.A.A.# % ^.(.(.L.(.(.).(.K.(.).(.~.H.  S D.A.A.A.A.S.S.G.n.  [ (.I.~.).",
"(.).).(.U.% e C.A.A.A.A.S.S.A.A.A.: ; /.(.).).(.).(.).).(.).(.).I.  S Z.Z.A.A.A.A.Z.A.n.  [ ).).).).",
").(.(.Q.I.% 7 l.x.x.z.z.x.z.c.c.x.4 - ^.).(.(.Q.(.(.(.(.Q.(.).(.I.  j g.d.g.g.d.d.d.d.$.  [ ).~.Q.).",
"P.).(.(.I.% 5 f.d.d.d.d.d.d.d.d.d.> - R.U.(.(.(.(.U.(.(.(.(.P.(.I.  8 d.d.d.d.d.d.d.d.#.. { ).(.(.(.",
"Q.).(.(.I.% > H H H H H H H H H H > % R.Q.).).).).Q.).).(.).Q.).J.  @ 4 4 5 4 4 5 4 @ .   { (.).(.).",
"(.(.L.(.I.%   . . . .       . . .   + R.~.~.L.(.(.(.~.L.(.(.(.~.H.; - - + + - - - & & ; ;  .~.L.(.(."
};
