/* XPM */
static char *bfc00be9229b4a5fc32537c47b2bab23LxeRdiLLKjTXPA1U[] = {
/* columns rows colors chars-per-pixel */
"50 50 160 2 ",
"   c #259725",
".  c #269826",
"X  c #299F27",
"o  c #299E29",
"O  c #2DA42C",
"+  c #2FAB2F",
"@  c #3CA42B",
"#  c #31AC2F",
"$  c #33AE33",
"%  c #38AF31",
"&  c #34B134",
"*  c #3AB134",
"=  c #3EB339",
"-  c #429E22",
";  c #4B9F25",
":  c #42A226",
">  c #45A528",
",  c #52A426",
"<  c #52AC2B",
"1  c #4BB22D",
"2  c #56B32E",
"3  c #5BB42C",
"4  c #40AE32",
"5  c #49AF30",
"6  c #5FAF3C",
"7  c #46B332",
"8  c #4DB333",
"9  c #52B433",
"0  c #5CB330",
"q  c #57B833",
"w  c #53B23C",
"e  c #5AB63A",
"r  c #59B93C",
"t  c #64AA25",
"y  c #76A823",
"u  c #6BB427",
"i  c #63B42B",
"p  c #72B027",
"a  c #7CB322",
"s  c #7FB529",
"d  c #73BC2E",
"f  c #66AF39",
"g  c #66BA30",
"h  c #6DB932",
"j  c #74BC32",
"k  c #7ABE33",
"l  c #69AE41",
"z  c #63B141",
"x  c #66B94D",
"c  c #75BA43",
"v  c #8FA417",
"b  c #82A219",
"n  c #8AA41C",
"m  c #84A91E",
"M  c #8CA91B",
"N  c #93A717",
"B  c #9FA713",
"V  c #93B61A",
"C  c #99B31B",
"Z  c #95BF1F",
"A  c #BCB80F",
"S  c #A1A512",
"D  c #A5AA12",
"F  c #ACB914",
"G  c #A5B318",
"H  c #AAB519",
"J  c #A2BA1A",
"K  c #A8BA1A",
"L  c #B0B616",
"P  c #B3BA15",
"I  c #B9BA15",
"U  c #B6BD18",
"Y  c #B9BE19",
"T  c #81B725",
"R  c #94B621",
"E  c #93BF24",
"W  c #99BC22",
"Q  c #8ABF31",
"!  c #A6A926",
"~  c #B7B222",
"^  c #BAB420",
"/  c #B3B53A",
"(  c #C6BB0C",
")  c #CBBB0D",
"_  c #D6BC06",
"`  c #DDBD03",
"'  c #D1BC0B",
"]  c #C3B610",
"[  c #C1B81D",
"{  c #E1BE03",
"}  c #BEC517",
"|  c #B6C41B",
" . c #BEC519",
".. c #85C12D",
"X. c #8AC12B",
"o. c #9DC325",
"O. c #9AC52A",
"+. c #8AC130",
"@. c #91C131",
"#. c #A2C121",
"$. c #AEC62A",
"%. c #ACC92B",
"&. c #B8C520",
"*. c #D1C20D",
"=. c #DCC10E",
"-. c #C7C616",
";. c #C1C71C",
":. c #CCCA18",
">. c #D2C914",
",. c #D7C51B",
"<. c #D8CD1B",
"1. c #D7D01D",
"2. c #E4C105",
"3. c #E8C507",
"4. c #E7C509",
"5. c #EAC60A",
"6. c #EEC90D",
"7. c #F2CC0E",
"8. c #E5CD17",
"9. c #F3CE12",
"0. c #E4D21B",
"q. c #EBD31A",
"w. c #F5D214",
"e. c #FCD516",
"r. c #FAD817",
"t. c #F5D61A",
"y. c #FBD619",
"u. c #F7D919",
"i. c #FBD91C",
"p. c #C0C922",
"a. c #CACD23",
"s. c #C0C42F",
"d. c #D0D024",
"f. c #D1C231",
"g. c #E1D221",
"h. c #E4D321",
"j. c #F5D822",
"k. c #FDDA20",
"l. c #FCDA21",
"z. c #FBDA23",
"x. c #FADB28",
"c. c #FBDC2A",
"v. c #FCDC29",
"b. c #FCDD2D",
"n. c #FDDC2B",
"m. c #FDDF33",
"M. c #FDDE32",
"N. c #FFE037",
"B. c #FCE037",
"V. c #FEE036",
"C. c #FDE03A",
"Z. c #FEE13B",
"A. c #FEE13D",
"S. c #FFE23C",
"D. c #FFE23E",
"F. c #FFE23D",
"G. c #FFE141",
"H. c #FFE240",
"J. c #FFE341",
"K. c #FFE240",
/* pixels */
"$ & & $ & $ & & & & $ & & $ & & & & $ & & & & $ & $ & & $ & & & & $ & & & & $ & & & & & & & & & & & ",
"& & $ O & & $ $ O & & $ $ O $ & & # O $ & $ $ O & & $ $ O $ & $ $ O $ & $ $ O $ & $ $ O & & $ $ O $ ",
"o $ $ $ $ o $ & $ $ o $ $ $ & o $ $ & $ o $ $ & $ o $ $ & $ o & $ & & o $ $ & $ o $ $ & $ o $ $ $ $ ",
"O & & & & O & $ $ & O $ $ $ & O & & $ & O & $ $ & O & $ $ $ O & $ $ & O $ $ & & O & & $ & O $ $ & & ",
"$ $ . $ $ & $   $ & $ $ . $ $ $ $   $ & & $ . $ $ $ $ . $ $ $ $   $ $ $ # . $ & $ $ . $ $ $ $   $ $ ",
"$ & & $ & $ & & & & $ & & & & & & & & & $ & & $ & $ & & $ & $ & & $ & $ * & $ & $ & & $ & $ & & & & ",
"& $ + O $ & $ $ O $ & $ $ O $ & & + O $ & $ $ O & & $ $ O & & $ $ O $ & & # O $ & $ $ O & & & $ O $ ",
"o $ & $ $ o $ $ $ $ o $ $ $ $ o & $ $ $ o $ $ $ $ o $ $ $ $ o $ & $ $ o & $ $ $ o $ $ $ $ o $ $ & $ ",
"O $ $ $ & O & $ $ & O $ $ $ & O $ $ & $ O & & & & O $ $ $ & O & $ $ & O $ & $ & O $ $ $ $ O & & & & ",
"& $   $ $ $ $   $ $ $ $   $ & $ + . $ $ & +   $ & $ $   $ $ $ $ . $ $ $ $ . $ $ $ $ . % 2 9 $ . $ $ ",
"$ & & $ & & & & & & $ & & $ & $ & & $ & $ & & & & $ & & & & $ & & $ & $ & & $ & $ * & g } H & & & & ",
"& $ $ O $ & $ $ O $ & $ $ O & & $ $ O & $ & + O $ & & $ O $ & $ $ O $ $ $ $ O $ & * 0 s Y N & $ O $ ",
"o & $ & $ o $ $ & $ o $ $ $ $ o & & $ & o * $ $ $ o $ $ $ $ o $ & $ & < 2 7 $ & > 2 C P a : $ $ & & ",
"O & $ $ & O & $ $ & O $ & $ & O & $ & $ O & $ $ & O & $ * & O $ $ $ 7 p. .#.Z Z | | L D t O $ $ $ * ",
"$ # . $ & $ + . $ & $ $ . $ $ $ +   + & $ $ . $ $ $ $ . & $ $ $ o $ 7 ;.;.;.}  .;.Y b * & & #   $ $ ",
"$ & & $ & & & & $ & $ & & & & $ & & & & $ & & & & $ & & & & $ & & & & 1 7 d Z | -.Y m & & $ & & $ & ",
"& $ $ O $ & $ # O $ & $ + O $ & & + O $ $ $ $ O $ & $ $ o $ & $ # O $ & & $ O #.;.Y v @ $ & & $ O $ ",
"o $ $ $ & o $ $ & $ o $ $ & $ X & & $ & o $ & $ $ o $ $ & & o $ $ & $ o $ $ & #.;.U N % $ o $ $ $ $ ",
"O & $ & & O & $ $ & O $ & $ & O * & $ & O * $ $ & O $ & $ & O & $ $ & O & $ k  .} } S y < O & $ $ & ",
"$ $ . $ $ $ $ . $ $ $ $ . $ $ $ $   $ $ $ $   & $ $ $   $ $ & + . $ $ $ 4 , W :.<.;.Y D n $ $ . $ $ ",
"$ & & & & & & & $ & $ & & $ & $ & $ $ & & & $ & & $ $ $ $ $ $ & & $ & & h >.0.w.t.-.:.:.C * & & $ & ",
"$ $ $ O $ & $ # O $ & & # O $ & & + O $ & $ $ O & & $ $ O $ & & $ O $ * +.w.e.e.y.w.e.q.-.m $ $ O $ ",
"o $ $ $ $ o & $ & $ o $ $ $ $ o $ $ $ $ o & $ $ & o $ $ & $ o & $ $ $ a q.y.e.e.e.e.e.e.*.M $ $ $ & ",
"O * $ $ & O & $ $ & O $ $ & & O $ $ $ $ + $ $ $ $ O & $ $ & O & & $ & O.e.y.e.e.e.e.e.y.=.( * & $ & ",
"& # . $ $ $ $   $ $ $ $ . $ $ $ $ . $ & $ $   $ $ $ $   $ & $ +   9 a.0.e.e.y.e.e.e.y.y.{ { 9 . $ $ ",
"$ & & $ & & & & $ & & & & $ & $ & & $ & $ & & $ & $ & & & & & = q k z.z.z.y.e.y.e.e.e.9.{ { 8 & & & ",
"& $ $ O & & $ $ O & & $ $ O $ & & $ O $ & $ $ O & $ $ $ O $ & g t.e.m.G.J.z.w.e.e.e.y.{ { ' $ $ O & ",
"o $ $ $ $ o $ $ $ $ o & $ $ $ o $ $ $ $ X $ & $ $ O $ $ $ h &.a.c.M.m.J.D.i.e.e.e.e.y.{ { ) $ $ & & ",
"O $ $ $ 4 l c r & & O & $ $ & O $ $ $ & O $ & $ & O & +.%.a.e.e.m.G.G.J.m.l.e.e.y.e.{ { { p $ $ $ & ",
"$ $ . $ f ! ^ g.&.d * $   $ & & $   $ $ & $   & 7 $.$.0.y.M.D.D.D.G.G.i.y.e.e.e.e.e.{ { { 9 $ . $ $ ",
"$ & = x ! [ 8.y.r.u.i.h.o.O...h ..X.X.X.O.O.1.t.j.l.m.D.D.J.J.J.m.v.v.y.y.y.e.e.7.6.{ ` K 4 & * & & ",
"& $ e / ~ ,.e.e.r.v.x.z.j.i.z.r.i.z.z.z.z.M.b.m.J.J.G.G.m.Z.Z.Z.z.e.y.e.e.e.y.y.{ { { ' & & & $ o & ",
"o $ z f.t.e.e.y.e.z.v.v.m.J.J.D.J.J.J.J.D.J.J.J.J.J.D.Z.Z.b.i.i.y.e.e.e.e.e.7.w.{ ` ) I $ o & $ & $ ",
"O $ w s.e.y.e.e.y.l.l.z.G.J.F.F.J.J.D.D.J.D.D.J.D.F.V.y.y.e.e.e.e.e.e.e.e.w.2.{ { ' 3 7 & O & $ $ & ",
"$ $ . @.y.y.y.y.e.y.y.y.b.m.Z.D.D.F.D.D.m.c.c.c.r.e.e.e.e.e.e.e.e.e.e.e.7.7.2.{ ` ) - $ & $ $   $ $ ",
"$ & & e 4.{ e.y.e.e.y.y.e.e.e.r.e.e.e.e.e.e.e.e.e.e.e.e.e.e.e.e.e.e.e.9.{ { ` _ % * & & & $ & & $ & ",
"* $ $ O P { w.w.e.e.e.e.e.e.e.e.e.e.e.e.e.e.e.e.e.e.e.e.e.e.e.e.e.5.{ 2.` _ A P & $ $ O $ & $ + O $ ",
"o $ $ & W ( { 4.w.e.e.e.e.e.e.e.e.e.e.e.e.e.e.e.e.y.e.e.e.e.w.6.6.2.{ ` _ F * % o $ $ $ & o $ $ $ $ ",
"O $ $ $ * < { { 2.2.6.e.e.e.e.e.e.e.e.e.e.e.e.e.e.e.e.w.7.9.6.{ { { { C 3 1 & & O $ & $ & O & $ & & ",
"& $ . $ $ & < ; P { 2.5.5.7.w.e.e.e.e.e.e.e.e.e.e.6.7.5.{ { { ` ` V a 2 #   # & $ $ . $ $ $ $ . $ $ ",
"$ & & & & $ & & 8 3 R _ _ { { { { 2.3.3.2.3.{ { { { { ` ` _ I 3 i * & $ & & $ & $ & & $ & & & & & & ",
"& $ $ O & & $ $ O $ & * 5 G L ( _ ` { ` { { ` ` _ ) L H < % = $ $ O $ & $ $ O $ & $ $ O & & $ $ O $ ",
"o $ $ & & o $ $ $ $ o $ & % * @ 3 3 u u t i 3 3 2 : * * & $ o & $ $ & o $ & $ $ o $ $ $ $ o $ $ $ $ ",
"O & $ & & O & $ $ & O & $ $ & O & $ $ & O $ $ $ & O & & * & O & $ $ & O $ $ & & O & & & & O & $ $ & ",
"$ # . $ $ $ $   $ & $ $ . $ $ & $ . $ & & # . $ $ & $ . $ & & + . $ $ $ $   $ & $ $   $ $ $ $   $ $ ",
"$ & & & & $ & & $ & $ & & $ & $ & & $ & $ & & $ & $ & & & & $ & & $ & $ & & & & $ & & $ & & & & & & ",
"& $ $ O & & $ # O $ & $ # O $ & $ # O & & $ $ O & & $ # O & & & + O & & $ + O $ & $ $ O $ & $ $ O & ",
"o $ $ $ $ o & $ $ $ o $ $ & $ o & $ $ $ o $ $ $ $ o $ $ $ $ X $ $ $ & o & & $ $ o $ & $ $ o $ $ $ $ ",
"O & $ $ & O & $ $ & O & & $ & O & $ & & O $ $ $ & O & & $ & O & & $ & O & $ $ & O $ $ $ & O & & $ & ",
"$ $   $ $ & # . $ & $ #   $ $ & # . $ & $ $ . $ $ & + . $ $ $ +   $ $ $ $   $ $ $ $   $ $ & # . $ $ "
};
