/* XPM */
static char *_bfd76937be64c0281ad0acd7fa15a64SARCbZu7UIKXCB1x[] = {
/* columns rows colors chars-per-pixel */
"50 50 159 2 ",
"   c #000100",
".  c #080703",
"X  c #040C04",
"o  c #0D0C07",
"O  c #0E0D09",
"+  c #051106",
"@  c #081406",
"#  c #15120C",
"$  c #201C11",
"%  c #28241B",
"&  c #2D2A1A",
"*  c #242215",
"=  c #332F1E",
"-  c #263619",
";  c #363326",
":  c #3A3424",
">  c #383629",
",  c #3F382C",
"<  c #423D26",
"1  c #433D2F",
"2  c #453F31",
"3  c #1E6D1E",
"4  c #1D651C",
"5  c #265920",
"6  c #227422",
"7  c #47422F",
"8  c #4B452C",
"9  c #514C2F",
"0  c #474131",
"q  c #494433",
"w  c #4F4835",
"e  c #564F32",
"r  c #544E3B",
"t  c #5D5435",
"y  c #57503D",
"u  c #645B3B",
"i  c #567D3A",
"p  c #6B633E",
"a  c #626E3C",
"s  c #62703F",
"d  c #5C5541",
"f  c #635C44",
"g  c #6E6441",
"h  c #696A40",
"j  c #6C644C",
"k  c #736A46",
"l  c #72674B",
"z  c #756B4C",
"x  c #796F4D",
"c  c #7C724E",
"v  c #75784D",
"b  c #766C53",
"n  c #786E52",
"m  c #7C7255",
"M  c #7C7D53",
"N  c #7E7459",
"B  c #817656",
"V  c #847A56",
"C  c #81755B",
"Z  c #857A5A",
"A  c #8A7E5E",
"S  c #897E60",
"D  c #278827",
"F  c #298E28",
"G  c #269725",
"H  c #299727",
"J  c #269826",
"K  c #299E29",
"L  c #2DA42C",
"P  c #2FAB2F",
"I  c #31AC2F",
"U  c #31A732",
"Y  c #33AE33",
"T  c #39AD36",
"R  c #3EAF39",
"E  c #3DA333",
"W  c #33B134",
"Q  c #39B136",
"!  c #498233",
"~  c #4B8F37",
"^  c #4B8F38",
"/  c #429A37",
"(  c #499439",
")  c #45AC3E",
"_  c #43B03C",
"`  c #549841",
"'  c #5E9E4A",
"]  c #608F4B",
"[  c #688B4B",
"{  c #689D4F",
"}  c #659A4C",
"|  c #7E8854",
" . c #699F51",
".. c #779154",
"X. c #7F915D",
"o. c #799E5B",
"O. c #47AF40",
"+. c #54A744",
"@. c #52AC44",
"#. c #58AA46",
"$. c #55AB48",
"%. c #5CAB4C",
"&. c #61AA4E",
"*. c #6AA052",
"=. c #62AA50",
"-. c #6BA853",
";. c #72A557",
":. c #75A957",
">. c #76A75A",
",. c #7BA75D",
"<. c #73A858",
"1. c #7AA85D",
"2. c #7EA660",
"3. c #8D815D",
"4. c #91855F",
"5. c #8F8262",
"6. c #8A8C64",
"7. c #928565",
"8. c #968965",
"9. c #968A69",
"0. c #9A8C6B",
"q. c #859F62",
"w. c #8C9D66",
"e. c #9D906E",
"r. c #929F6A",
"t. c #9F9370",
"y. c #A0926D",
"u. c #A5986E",
"i. c #A29572",
"p. c #A69975",
"a. c #A99B76",
"s. c #AC9E7A",
"d. c #84A063",
"f. c #84A462",
"g. c #8AA466",
"h. c #8EA568",
"j. c #93A36B",
"k. c #9BA16E",
"l. c #9CA271",
"z. c #A6A177",
"x. c #A9A077",
"c. c #AEA07B",
"v. c #ACA07A",
"b. c #B3A47D",
"n. c #B1A27E",
"m. c #B8A97E",
"M. c #B7A881",
"N. c #BAAB84",
"B. c #BEAF84",
"V. c #BAAB82",
"C. c #C1AF87",
"Z. c #C2B487",
"A. c #C3B489",
"S. c #C2B389",
"D. c #CCBB8F",
"F. c #C8B98E",
"G. c #CEBD91",
"H. c #D1C094",
"J. c #D2C194",
/* pixels */
"Y W W Y W Y W W W W Y W W W W W W W Y W Y W W Y W W W W Y W W W W Y W W W W Y W W W W W W W W W W W ",
"W W Y L W W Y Y L Y W Y I L Y W W I L Y W W Y L Y W Y Y L Y W Y Y L Y W Y Y L Y W W Y L W W Y Y L Y ",
"K Y Y Y Y K W Y Y W K Y Y W Y K Y Y W Y K Y Y W Y K W Y W Y K Y W Y W K Y Y Y Y K Y Y Y Y K Y Y Y Y ",
"L W W W W L W Y Y W L Y Y Y W L W Y W W L W Y Y W L W Y Y W L W Y Y W L W Y W W L W Y W W L Y Y W W ",
"Y Y G Y Y Y Y G Y W Y Y G Y Y Y Y G W W Y Y J Y W Y Y J Y Y Y Y G Y Y Y I H Y W Y I J Y W Y Y G Y Y ",
"Y W W W W W W W W W Y W W W W W W W Y W Y W W Y W Y W W Y W Y W W Y W Y Q W Y W W W W Y W Y W W W W ",
"W Y P L Y W Y Y L Y W Y I L Y W W I L Y W Y Y L Y W Y Y L W W Y Y L W W W P L Y W Y Y L W W Y Y L Y ",
"K W Y W Y K Y Y Y W K W Y Y Y K W Y Y W K Y Y Y Y K Y Y Y Y K Y W Y Y K Y W Y W K Y Y Y Y K W Y W Y ",
"L Y Y W W L W Y Y W L Y Y Y W L W Y Y W L Y Y Y W L Y Y Y W L Y Y Y W L Y Y Y W L Y Y Y W L W Y Y W ",
"Y I G Y Y Y Y G Y Y Y Y G Y W Y I J Y Y Y Y J Y Y W Y G Y W Y Y G Y Y W Y J Y Y Y Y J Y Y Y Y J Y Y ",
"Y W W W W W W W W W Y W W Y W Y W W W W Y W W Y W W W W W W Y W W Y W W W W W W Y W W Y W Y W W W W ",
"W Y Y L Y W W P L Y W Y Y L W W W I L Y W W Y L Y W Y Y L Y W W Y L W W Y I L Y W Y Y L Y W Y Y L Y ",
"K W Y Y W K Y Y W Y K Y Y Y Y K Y W Y Y K Y Y Y Y K Y Y Y Y K Y Y Y Y K Y Y Y Y K Y Y W Y K Y Y W W ",
"L Y Y Y W L W Y Y W L W Y Y W L W Y Y W L W W Y W L W Y Y W U Y W W W L W W Y W L W Y Y W L W Y W W ",
"Y I J Y Y Y Y J Y Y Y Y H Y Y Y I J Y Y Y I J Y Y W Y J Y Y Y Y J Y W Y Y G Y Y Y Y J Y W Y Y J Y W ",
"Y W W W W W W W W W Y W W W W W W W W W W W W Y W Y W W W Q Y W W Y W W W W W W Y W W Y W Y W W Y W ",
"W Y I L Y W Y Y L Y Y Y Y L W W W Y L Y W W P L W W Y Y L Y H K H F L Y Y U L Y W Y Y L Y W Y P L Y ",
"K W Y Y Y K Y Y Y Y H Y Y L P H U U W Y K Y Y Y Y G U Y U D . . . O O F W W W Y K Y Y Y W K W Y Y W ",
"L W W Y W L W Y W 6 X + X + + X + @ L Y L W Y Y 4 X + X + X O u u 0.0.h E Y W W L W W Y W L Q Y Y W ",
"Y I J W Y W P J Y 3 q c.e.p p p u .               : p p p f t o g a.v.s.x p p p ( I G I Y Y P J Y Y ",
"Y W W W W Y W W ' 6.e.s.y.p p p p u u t O   < u u u p 8 O O O O p k 8.9.k 0.i.i.M a ^ Y W Y W W Y W ",
"W Y Y L Y W W I ] 7.3.c c p p p p u p p e 9 u p u g 8 ; l j f O p p k k 8.s.v.t.5.A v ^ Y W Y Y L Y ",
"K Y Y Y W K Y W } i.B.m.i.p p p p p p p p p p p p < > n 0.p.e.j u $ p Z a.s.v.t.5.5.y 5 W K Y Y Y Y ",
"L W Y Y W L ( [ k.S.H.H.S.3.p g p p p p p p p p p = ; 0.p.s.a.7.B q $ A a.s.i.9.9.7.q - i ! W Y W W ",
"W Y J Y Y ~ s V M.G.G.G.G.p.5.g = c g p p p p < & # < i.s.s.s.7.7.B   j V 0.9.d 2 f m b | / U J W Y ",
"Y W W Y W ..5.0.p.N.H.G.N.s.7.& y c.p.i.8.w z b d % 1 a.s.s.a.7.7.7.  V k 7 , q d N q.=.%.Y Q W W W ",
"W Y Y L W &.;.j.i.s.S.M.t.7.q 2 i.H.H.S.n.> N i.0.f f 0.s.t.e.7.8.7.= y.4.t y N q.<.+.L Y W Y Y L Y ",
"K Y Y Y Y K @.<.j.k.w.p.0.b O t.c.Z.B.M.i.; b 9.7.7.z f 0.7.7.n y m V s.c.f.l.h. .@.Y Y W K Y W Y W ",
"L Y Y Y W L %.-.;.<.*.2.d.S 1 v.s.c.c.c.t.d b 5.5.A h d 0.0.0.m 0 m ,.v.f.-.1.-.;.%.Y Y W L W Y W W ",
"Y Y J Y Y Y T  .%.#.-.T ` j.0.j.j.a.j.z.v.t.0.0.6.M M 6.j.l.x.j.s.j.@.g.) o.=.>.$.Y G Y Y W P J Y Y ",
"W W W Y W Y W W Y W W @.2.) h.Y @.g.#.g.a.l.z.l.<.<.1._ W ) f.) g.Q j.R W W ,.#.Y W Y Y W W W W Y W ",
"W Y I L W Y Y Y L Y W W Y L Y W h.T g.$.g.=.2.+.=.=.#.*.L W W W P L W W Y Y L Y Y Y Y L W W W U L W ",
"K Y Y W Y K Y Y W Y K Y Y Y W K Y Y W h.E 2.$.Y Y K Y W W Y K Y Y Y W K W Y Y Y K Y Y Y Y K Y Y Y Y ",
"L W Y Y W L W Y W W L W Y Y W L W W Y Q U T W Y W L W Y W W L W Y W W L W W W W L W W W W L W Y Y W ",
"W Y J Y Y Y Y J Y Y W Y H Y Y W Y J Y Y U Y J Y W W U J Y Y Y Y G Y Y Y U J Y W Y Y J Y W W U J Y Y ",
"Y W W W W Y W W Y W Y W Q Y W Y W W Y T W W W Y W W Q W W W Y W W W W Y W W W W Y W W W W W Q W Y W ",
"W Y Y L Y W Y Y L Y W Y Y L Y W Y P L Y W W P L W W W P L Y W Y Y L Y W Y P L Y W W P L W W I I L Y ",
"K W Y Y Y K Y Y Y W K Y Y W Y K W W W Y K Y W W I K Y Y Y W K Y Y Y W K Y W Y Y K W W W Y K W W Y Y ",
"L W Y Y W L W W Y W L W Y Y W L W W W W L W W W W L Y Y Y W L W W Y W L W Y Y W L W W Y W L Y W W W ",
"Y P J Y Y W P J W Y Y I J Y W Y P J U Y Y P J Y W W I G Y Y W I G Y Y W I J Y W Y U G Y Y Y Y J Y W ",
"W W W W W W W Q W W Y W W W W Y W W W W W W W Y W Y W W W W Y W W Y W Y W W W W Y W W W W W W W Y W ",
"W Y I L W W W U L Y W Y I L Y W Y P L Y W W P L W W Y Y L Y W Y Y L W W W I L Y W W P L W W W P L Y ",
"K Y Y Y W K Y W Y Y K W W Y W K W Y Y W K Y Y W W K Y Y W Y K Y Y Y Y K Y Y Y Y J W Y W Y K W W W Y ",
"L W W W W L W Y Y W L W Y Y W L W Y Y W L W W Y W L W Y Y Y L W Y Y W U W Y W W L W W W W L W Y Y W ",
"Y I J Y W Y I J Y W Y Y J Y Y Y Y G Y W W P G Y Y W P J Y Y Y Y J Y W Y Y J Y W Y Y G Y Y Y U J Y Y ",
"Y W W W W Y W W Y W Y W W Y W W W W Y W W Q W W W W W W Y W W W W Y W Y W W Y W Y W W Y W W Q W W W ",
"W Y I L Y W Y Y L Y W W P L Y W Y Y L Y W W P L W W W P L W W Y P L W W Y I L W W Y Y L Y W W P L W ",
"K Y W Y Y K Y W Y Y K Y Y Y W K W U T W K Y Y Y W K W W Y Y K Y W Y W K W Y Y Y K Y W U W K W W Y Y ",
"L W W Y W L Y W Y W L W W Y W L W Y W W L W Y Y W L W Y Y W L W W W W U Y Y Y W L W Y Y W L Y W Y W ",
"Y Y G Y Y W I J Y Y W I G Y Y W I J W Y Y P G W Y W Y G Y Y Y P J U Y Y P J Y Y Y Y G Y Y W Y J Y Y "
};
