/* XPM */
static char *ecce5235aea64f6bfa2d829384e8f3b0vGPU8sA8RQ4JV1fl[] = {
/* columns rows colors chars-per-pixel */
"50 50 150 2 ",
"   c black",
".  c #010000",
"X  c #000100",
"o  c #010100",
"O  c #010101",
"+  c #020001",
"@  c #000002",
"#  c #010002",
"$  c #22150D",
"%  c #452B1C",
"&  c #462A1C",
"*  c #452B1E",
"=  c #462C1D",
"-  c #4F3220",
";  c #573623",
":  c #573625",
">  c #124C12",
",  c #154F14",
"<  c #145014",
"1  c #155115",
"2  c #165216",
"3  c #185617",
"4  c #195718",
"5  c #1B5719",
"6  c #1A571B",
"7  c #185919",
"8  c #1A5819",
"9  c #1B591A",
"0  c #195A1A",
"q  c #227C22",
"w  c #624638",
"e  c #634638",
"r  c #62463A",
"t  c #64584A",
"y  c #6A584C",
"u  c #875437",
"i  c #885536",
"p  c #8A5536",
"a  c #875638",
"s  c #885538",
"d  c #8A5438",
"f  c #895639",
"g  c #88553A",
"h  c #955C3E",
"j  c #955C3F",
"k  c #975C3E",
"l  c #9B603E",
"z  c #9B6040",
"x  c #9E6240",
"c  c #9F6341",
"v  c #A16241",
"b  c #AD6B48",
"n  c #AF6B48",
"m  c #A77252",
"M  c #A77253",
"N  c #259725",
"B  c #269725",
"V  c #259726",
"C  c #279727",
"Z  c #279824",
"A  c #269924",
"S  c #249926",
"D  c #269826",
"F  c #279826",
"G  c #269827",
"H  c #289F27",
"J  c #289D28",
"K  c #299E29",
"L  c #2B9E29",
"P  c #2B9D2B",
"I  c #299E2B",
"U  c #2A9F2A",
"Y  c #2CA32B",
"T  c #2BA62A",
"R  c #2DA52A",
"E  c #2BA52C",
"W  c #2DA42C",
"Q  c #2EA42C",
"!  c #2FA52D",
"~  c #2CA62D",
"^  c #2DA42E",
"/  c #2FAB2F",
"(  c #30AB2E",
")  c #30AB2F",
"_  c #31AC2F",
"`  c #30AD2F",
"'  c #33AB30",
"]  c #31AB32",
"[  c #30AC30",
"{  c #31AC30",
"}  c #31AD31",
"|  c #32AD31",
" . c #33AE31",
".. c #32AF31",
"X. c #31AD33",
"o. c #31AF32",
"O. c #32AE32",
"+. c #33AE32",
"@. c #33AF33",
"#. c #34AF33",
"$. c #33AD34",
"%. c #31AF34",
"&. c #32AE34",
"*. c #33AF35",
"=. c #34AE35",
"-. c #35AF36",
";. c #32B032",
":. c #33B032",
">. c #32B033",
",. c #33B133",
"<. c #31B233",
"1. c #34B133",
"2. c #35B232",
"3. c #34B332",
"4. c #33B134",
"5. c #32B035",
"6. c #32B334",
"7. c #34B034",
"8. c #35B034",
"9. c #35B135",
"0. c #34B234",
"q. c #35B234",
"w. c #34B235",
"e. c #35B335",
"r. c #34B036",
"t. c #33B435",
"y. c #BB896E",
"u. c #BC896E",
"i. c #BB8970",
"p. c #C28B6C",
"a. c #C28B6D",
"s. c #C28A6F",
"d. c #C48B6D",
"f. c #C48B6E",
"g. c #C38C6D",
"h. c #C38C6E",
"j. c #C28D6E",
"k. c #C48D6F",
"l. c #C38B70",
"z. c #CF9D84",
"x. c #CD9D86",
"c. c #CD9D87",
"v. c #CC9E86",
"b. c #D5AF98",
"n. c #D5AF9A",
"m. c #D7AE9A",
"M. c #D5AF9C",
"N. c #D6B099",
"B. c #D4B09A",
"V. c #D6B09B",
/* pixels */
"@.0.1.=.6.@.0.0.<.1.#.<.0.#.1.@.1.<.#.0.#.1.0.#.0.@.0.0.@.0.@.0.0.*.4.=.1.0.@.1.@.1.1.1.4.@.0.<.@.1.",
"<.@._ Q 1.1.@.@.W @.@.@.@.W @.#.@._ Q #.<.1.{ W @.<.@._ W @.<.@.{ W <.1.@.@.Q #.<.@.@.W 0.1.@.@.W @.",
"J @.@.<.@.J @.@.@.@.J 1.@.@.@.H @.@.@.@.J =.<.=.#.J =.#.<.#.J =.@.@.=.J @.@.@.#.H @.@.@.#.J @.#.*.#.",
"W 1.0.=.<.Q @.@.#.1.R =.@.@.<.Q #.@.@.<.W #.#.@.<.W 0.=.@.@.W 1.@.#.1.W @.@.<.<.Q 1.@.@.<.W =.@.0.<.",
"@.{ N @.#.@.{ N @.#.@.{ N @.@.@.@.N @.@.#.{ N @.@.<.' N { @.@.@.N @.#.#.{ Z @.#.@._ F @.@.@.{ N $.#.",
"@.0.0.@.1.#.0.0.@.1.@.<.0.#.<.*.1.1.0.0.@.0.1.@.0.=.0.0.*.0.#.<.0.@.<.#.0.<.@.1.@.4.0.@.4.@.0.0.@.0.",
"<.#.{ W @.0.*.{ R *.0.@._ W @.@.<._ Q =.<.#._ W 1.1.@.{ W #.@.@.{ W *.@.=.@.Q @.<.#.{ W <.1.*.{ W @.",
"J #.<.@.@.J @.@.@.*.J @.@.@.#.H #.#.4 4 J =.#.@.=.J @.@.@.#.J @.#.@.*.H @.@.#.#.J #.@.@.@.J @.@.*.@.",
"W @.@.@.<.W =.1.@.<.Q #.@.@.@.Q 4.@.. . E @.*.4.<.R 4.<.@.<.W =.*.@.<.E *.@.@.<.Q @.@.@.@.Q =.@.@.@.",
"=._ N @.@.@._ F @.@.@.{ N @.@.<.{ > . . @.3 > 4 4 4 3 > 4 4 3 3 > @.@.@._ F @.@.@.@.N @.@.@.@.N @.@.",
"@.0.0.@.0.#.0.<.#.0.@.0.0.*.1.@.0.. . . @.. . . . . . . . . . . . 4.4.@.4.1.@.0.@.<.1.@.1.@.0.0.=.<.",
"0.@.{ W @.1.#._ T =.<.*.{ W #.1.@.@.W @.. a s i s s v x c c c v x . 4.4.@.@.R @.1.@._ Q @.<.@._ W @.",
"J 1.@.@.@.H @.@.@.@.J =.=.#.#.J @.@.3 4 % i s s s M u.i.y.c c c x y 0 2 @.@.@.@.J @.@.@.#.J @.#.=.0.",
"R =.@.@.@.Q =.#.@.@.W 0.@.@.<.Q @.@.. . s s i s s h.n.n.B.v v c x n.. . @.@.@.@.Q @.@.@.<.Q #.@.*.1.",
"@.@.N @.@.@.{ N @.#.@._ F @.@.#.{ . . . s s s h.k.k.n.n.n.n.B.B.n.n.M.n.. F @.@.@.@.N @.<.@.@.F @.#.",
"@.4.<.#.<.@.0.0.@.<.#.1.1.0.<.@.4.. . . s s s h.h.d.n.n.n.n.n.n.n.M.n.n.. <.@.<.@.1.<.@.1.@.<.1.@.<.",
"0.@._ Y @.0.@._ W #.<.@.{ E @.. . h.h.h.. a s h.h.h.n.B.. y M.n.n.. n.n.. @.W *.<.@.@.W #.1.@._ Y @.",
"J #.@.@.<.J @.#.@.#.J *.*.<.@.. . l.M M ; l z h.h.h.n.n.. y n.n.n.. n.B.. @.@.@.J =.@.@.#.J @.@.@.@.",
"W 0.@.@.1.Q =.#.@.@.W 0.@.@.<.. . h.s s b b b h.h.h.B.n.. y n.n.n.. n.n.. <.@.<.W *.@.@.<.Q =.#.@.@.",
"=.{ N @.@.@.{ N @.@.@.{ N @.<.. . h.. . b b b b b h.h.h.n.n.n.n.n.n.n.n.B.. . @.@.{ N @.@.@.@.Z @.@.",
"@.<.1.#.0.#.0.<.@.<.@.0.1.@.1.. . l.. . b b b : : h.h.h.c.n.n.n.n.n.B.n.n.y y 0 4 1.0.@.4.@.0.0.@.<.",
"<.#.@.W 1.<.1.@.Q *.<.@.@.R @.. . h.. . b b b . . k.h.h.h.n.n.n.n.n.n.n.n.n.n.. . *._ Q #.<.#.{ Q @.",
"J @.@.@.=.J 4.. . . . . 0.=.=.J 4.. h.h.b . . h.h.h.k.h.h.h.k.h.k.n.n.n.n.n.n.. . @.@.@.@.J #.#.@.@.",
"W @.*.@.4.R *.. . . . . #.#.<.W 4.. h.h.b . . l.s.h.s.h.l.h.h.h.s.n.n.n.M.n.n.. . 4.@.@.<.W =.1.@.1.",
"*._ F *.<.4 . N #.#.@._ . 4 @.@.@.. . . b . . l.h.h.h.h.h.. . . . h.h.s.h.. . @.#.{ N @.0.=._ N @.@.",
"4.4.0.@.0.4 . 0.<.4.#.t.. 0 0.#.1.0 0 0 ; ; : w w w w w w w w w w w w w w 0 0 0.#.0.<.*.0.@.0.1.#.<.",
"<.=._ W . 0 *._ W =.<.@.@.2 . <.@.{ W @.. b b . . . . . . h.h.h.h.. . . . @.Y @.1.@._ R @.1.@._ Q @.",
"J 0.#.@.. , @.@.0 . J @.@.4 . J @.@.4.4.. . . b b h.h.h.h.h.h.h.h.h.. . @.@.@.@.J @.@.@.=.J @.@.=.@.",
"Q #.@.#.. 2 *.@.4 . W 4.=.4 . W 0.=.#.<.. . @ b b h.h.l.h.h.h.s.h.h.. . #.@.@.1.W =.<.#.<.W =.=.@.@.",
"@._ N @.. 4 @.N @.<.. . . 4 @.@.{ N . . i s s . . . . . . . . . . . @.<.@.N @.#.1.{ N @.@.@.@.N @.@.",
"@.1.<.#.. 4 <.1.@.4.. . . 0 1.@.0.0 $ % s a s % % % % % % % = . . 0 0.#.@.<.#.1.@.<.1.#.0.@.0.<.@.4.",
"<.@.@.W @.0 . { W @.<.@.{ T #.<.#.. % s s s s s s a i s s s a . . Q #.<.#._ Q #.<.@.@.W #.0.=._ W 4.",
"J #.#.#.<.J <.. . . H @.@.#.#.. . a s s s h.h.. . u c c . a u v c . <.J @.@.@.#.J =.@.@.@.J #.@.@.@.",
"W =.@.@.4.W =.0 4 0 2 0 4 0 0 . . s s s M h.s.y y = h h - = % h h - 4 2 1.*.@.<.W 1.*.@.<.Q =.@.@.@.",
"@.@.F @.@.@.{ N @.@.. . . . . . . a s a h.h.h.B.B.. u s x . . a s v . . _ N @.#.<._ F @.@.@._ F @.@.",
"@.<.4.*.0.@.4.1.#.0.@.0.4.0.4.. . . . . . . . B.n.. B.B.n.b.n.. . n.m.n.. 0.@.<.#.1.1.0.0.4.3.0.#.<.",
"<.@._ W @.4.*._ W @.4.@.@.R *.. . . . . . . . n.n.. n.b.n.n.n.. . n.n.n.. _ Q @.<.@.@.W @.0.@._ Q @.",
"J @.@.@.<.J #.#.@.#.J *.@.3 . s.h.h.B.n.n.n.B.. . h.n.B.n.n.B.. . n.B.B.. 1.@.#.J @.@.@.@.J @.@.#.@.",
"W =.@.@.1.W =.<.@.4.W 4.#.0 . h.h.h.c.c.c.n.n.. . h.c.c.c.y y w w c.y t 0 =.@.<.W =.@.@.@.W *.1.@.<.",
"=.{ F @.#.@.@.N @.@.#._ N 0 . h.h.h.h.h.h.n.n.. . h.h.h.h.. . h.h.l.. . _ N @.@.@._ N *.@.@.@.N @.@.",
"@.1.0.#.4.#.0.0.@.<.@.0.0.0 . . . . . . . . . . . . . . . . . . . . 1.#.1.<.@.0.@.4.1.0.4.#.0.0.4.4.",
"<.@.@.Q 0.<.@._ R =.1.#.@.q 0 4 4 3 2 0 4 0 3 2 0 4 0 3 2 4 0 0 3 2 0.<.#.@.W @.<.@._ Q 0.<.#.{ R @.",
"H @.@.<.@.J @.#.#.@.J #.@.#.#.J @.@.#.=.J =.@.@.@.J @.@.<.@.J @.<.#.@.J #.@.#.@.J @.@.<.@.J @.#.*.@.",
"Q #.=.0.1.W =.@.#.1.W =.@.#.<.W 1.@.@.<.W 0.@.@.1.W *.@.#.<.Q =.@.@.4.R =.@.=.<.W 1.0.=.<.Q =.@.=.@.",
"@._ N @.@.@.{ N @.@.#.@.N @.@.@.{ N @.@.@.@.N @.@.@.{ N @.@.@.{ F @.@.@.{ N @.@.@.{ N @.#.@.{ N #.@.",
"@.4.0.@.0.#.0.0.@.1.#.1.0.#.0.@.1.1.@.0.@.1.<.@.0.@.0.0.@.1.@.1.<.#.<.@.<.o.*.1.@.0.0.@.0.#.0.0.@.<.",
"<.@.{ W @.<.*._ Q @.#.#.@.W #.<.@._ Q #.<.#._ Q #.<.=.@.Q *.@.@.{ W #.#.@.@.R @.<.#.{ W @.0.*.{ Q @.",
"J @.@.@.@.J @.@.@.@.H @.@.#.=.J @.@.@.#.H #.#.<.@.J @.@.@.@.H @.@.1.#.J @.#.@.=.J #.<.@.@.J @.@.*.@.",
"W 0.@.@.@.Q @.1.@.<.Q <.@.@.<.Q #.@.<.4.W <.#.#.<.W =.<.#.<.Q @.@.@.<.Q @.=.@.<.Q @.@.@.@.Q <.#.@.<.",
"#.@.N @.@.@._ F @.@.@._ A @.@.@._ F @.@.=.{ N @.@.@.@.N @.#.@._ N @.@.@._ N @.#.@.@.N @.@.@._ A @.#."
};
